#N canvas 24 164 628 460 10;
#X obj 31 25 inlet;
#X text 79 27 BPM;
#X obj 31 46 t b f;
#X msg 31 67 60000;
#X obj 31 88 /;
#X floatatom 31 109 5 0 0 0 - - -;
#X text 80 109 Rate in M.S;
#X obj 31 129 t b f;
#X obj 229 245 f;
#X text 80 132 Store the rate in M.S.;
#X obj 415 34 inlet;
#X text 467 33 Subdivisions;
#X obj 415 55 + 1;
#X text 467 56 Avoid 0 division range 1-8;
#X obj 415 76 t f f;
#X obj 463 420 outlet;
#X text 485 386 Modulo;
#X obj 387 101 t b f;
#X text 465 106 send the subdivision \; to the division object \; also
\, bang the equation update the metronome;
#X obj 229 266 /;
#X floatatom 229 287 5 0 0 0 - - -;
#X obj 16 419 outlet;
#X text 68 420 Rate in M.S / Subdivisions;
#X connect 0 0 2 0;
#X connect 2 0 3 0;
#X connect 2 1 4 1;
#X connect 3 0 4 0;
#X connect 4 0 5 0;
#X connect 5 0 7 0;
#X connect 7 0 8 0;
#X connect 7 1 8 1;
#X connect 8 0 19 0;
#X connect 10 0 12 0;
#X connect 12 0 14 0;
#X connect 14 0 17 0;
#X connect 14 1 15 0;
#X connect 17 0 8 0;
#X connect 17 1 19 1;
#X connect 19 0 20 0;
#X connect 20 0 21 0;
