#N canvas 469 52 608 463 10;
#X obj 278 375 click 880;
#X obj 278 336 bng 15 250 50 0 empty empty empty 17 7 0 10 -262144
-1 -1;
#X obj 278 411 dac~;
#X obj 347 336 bng 15 250 50 0 empty empty empty 17 7 0 10 -262144
-1 -1;
#X obj 347 375 click 440;
#X obj 278 117 tgl 15 0 empty empty empty 17 7 0 10 -262144 -1 -1 0
1;
#X obj 278 158 f;
#X obj 310 158 + 1;
#X floatatom 278 179 5 0 0 0 - - -;
#X obj 278 199 % 4;
#X text 4 201 Subdivisions (clicks per beat);
#X floatatom 278 220 5 0 0 0 - - -;
#X obj 278 240 sel 0;
#X text 26 138 Rate in M.S. / Subdivisions;
#X obj 369 123 ratelogic;
#X obj 369 82 r bpm;
#X obj 420 81 r subdivisions;
#X floatatom 425 189 5 0 0 0 - - -;
#X obj 425 212 s bpm;
#X obj 425 244 hradio 15 1 0 8 empty empty empty 0 -8 0 10 -262144
-1 -1 3;
#X floatatom 425 266 5 0 0 0 - - -;
#X obj 425 286 s subdivisions;
#X obj 469 329 tgl 15 0 empty empty empty 17 7 0 10 -262144 -1 -1 0
1;
#X obj 469 349 s onOff;
#X obj 175 15 r onOff;
#X obj 175 36 t f f;
#X text 28 50 toggle onOff \; reset counter \; always starts with high
click \;;
#X obj 175 57 sel 0;
#X msg 175 78 0;
#X obj 278 137 metro 250;
#X connect 0 0 2 1;
#X connect 0 0 2 0;
#X connect 1 0 0 0;
#X connect 3 0 4 0;
#X connect 4 0 2 0;
#X connect 4 0 2 1;
#X connect 5 0 29 0;
#X connect 6 0 7 0;
#X connect 6 0 8 0;
#X connect 7 0 6 1;
#X connect 8 0 9 0;
#X connect 9 0 11 0;
#X connect 11 0 12 0;
#X connect 12 0 1 0;
#X connect 12 1 3 0;
#X connect 14 0 29 1;
#X connect 14 1 9 1;
#X connect 15 0 14 0;
#X connect 16 0 14 1;
#X connect 17 0 18 0;
#X connect 19 0 20 0;
#X connect 20 0 21 0;
#X connect 22 0 23 0;
#X connect 24 0 25 0;
#X connect 25 0 27 0;
#X connect 25 1 5 0;
#X connect 27 0 28 0;
#X connect 28 0 6 1;
#X connect 29 0 6 0;
