#N canvas 752 433 450 300 10;
#X obj 51 37 inlet;
#X text 100 36 bang;
#X text 105 245 Signal;
#X obj 173 128 osc~ 440;
#X obj 145 162 *~;
#X obj 51 104 vline~;
#X msg 51 71 0.25 1 \, 0 20 30;
#X obj 55 246 outlet~;
#X text 199 22 Enable a creation argument;
#X obj 204 92 \$1;
#X obj 204 59 loadbang;
#X connect 0 0 6 0;
#X connect 3 0 4 1;
#X connect 4 0 7 0;
#X connect 5 0 4 0;
#X connect 6 0 5 0;
#X connect 9 0 3 0;
#X connect 10 0 9 0;
